<svg width="34" height="35" viewBox="0 0 34 35" fill="none" xmlns="http://www.w3.org/2000/svg">
<g filter="url(#filter0_d_10601_518)">
<path d="M26.5002 6.49935H23.3335C23.3335 3.00018 20.4993 0.166016 17.0002 0.166016C13.501 0.166016 10.6668 3.00018 10.6668 6.49935H7.50016C5.7585 6.49935 4.3335 7.92435 4.3335 9.66602V28.666C4.3335 30.4077 5.7585 31.8327 7.50016 31.8327H26.5002C28.2418 31.8327 29.6668 30.4077 29.6668 28.666V9.66602C29.6668 7.92435 28.2418 6.49935 26.5002 6.49935ZM17.0002 3.33268C18.7418 3.33268 20.1668 4.75768 20.1668 6.49935H13.8335C13.8335 4.75768 15.2585 3.33268 17.0002 3.33268ZM26.5002 28.666H7.50016V9.66602H10.6668V12.8327C10.6668 13.7035 11.3793 14.416 12.2502 14.416C13.121 14.416 13.8335 13.7035 13.8335 12.8327V9.66602H20.1668V12.8327C20.1668 13.7035 20.8793 14.416 21.7502 14.416C22.621 14.416 23.3335 13.7035 23.3335 12.8327V9.66602H26.5002V28.666Z" fill="#002F52"/>
<path d="M22.8335 6.49935V6.99935H23.3335H26.5002C27.9657 6.99935 29.1668 8.20049 29.1668 9.66602V28.666C29.1668 30.1315 27.9657 31.3327 26.5002 31.3327H7.50016C6.03464 31.3327 4.8335 30.1315 4.8335 28.666V9.66602C4.8335 8.20049 6.03464 6.99935 7.50016 6.99935H10.6668H11.1668V6.49935C11.1668 3.27632 13.7771 0.666016 17.0002 0.666016C20.2232 0.666016 22.8335 3.27632 22.8335 6.49935ZM20.1668 6.99935H20.6668V6.49935C20.6668 4.48154 19.018 2.83268 17.0002 2.83268C14.9824 2.83268 13.3335 4.48154 13.3335 6.49935V6.99935H13.8335H20.1668ZM26.5002 29.166H27.0002V28.666V9.66602V9.16602H26.5002H23.3335H22.8335V9.66602V12.8327C22.8335 13.4274 22.3449 13.916 21.7502 13.916C21.1555 13.916 20.6668 13.4274 20.6668 12.8327V9.66602V9.16602H20.1668H13.8335H13.3335V9.66602V12.8327C13.3335 13.4274 12.8449 13.916 12.2502 13.916C11.6555 13.916 11.1668 13.4274 11.1668 12.8327V9.66602V9.16602H10.6668H7.50016H7.00016V9.66602V28.666V29.166H7.50016H26.5002Z" stroke="black"/>
</g>
<defs>
<filter id="filter0_d_10601_518" x="0.333496" y="0.166016" width="33.3335" height="39.666" filterUnits="userSpaceOnUse" color-interpolation-filters="sRGB">
<feFlood flood-opacity="0" result="BackgroundImageFix"/>
<feColorMatrix in="SourceAlpha" type="matrix" values="0 0 0 0 0 0 0 0 0 0 0 0 0 0 0 0 0 0 127 0" result="hardAlpha"/>
<feOffset dy="4"/>
<feGaussianBlur stdDeviation="2"/>
<feComposite in2="hardAlpha" operator="out"/>
<feColorMatrix type="matrix" values="0 0 0 0 0 0 0 0 0 0 0 0 0 0 0 0 0 0 0.25 0"/>
<feBlend mode="normal" in2="BackgroundImageFix" result="effect1_dropShadow_10601_518"/>
<feBlend mode="normal" in="SourceGraphic" in2="effect1_dropShadow_10601_518" result="shape"/>
</filter>
</defs>
</svg>
